<svg width="240" height="180" viewBox="0 0 240 180" fill="none" xmlns="http://www.w3.org/2000/svg">
<path d="M98.8203 138.487C78.9135 117.535 89.9307 89.5025 119.531 89.4763C132.155 89.4663 143.058 87.9661 154.463 81.1999C170.75 71.532 180.683 56.0651 202.006 58.6791C233.74 62.5358 247.438 94.0005 235.296 121.637C226.934 140.663 209.428 150.15 190.072 154.099C163.345 159.544 119.342 160.918 98.8203 138.487Z" fill="#222831"/>
<path d="M101.485 19.6085C130.25 16.7579 145.616 42.6686 127.461 66.0537C119.717 76.0259 114.207 85.5543 112.546 98.713C110.177 117.508 116.289 134.847 101.132 150.076C78.6015 172.761 45.3502 164.254 30.9872 137.699C21.1017 119.414 24.3613 99.7688 33.1286 82.0628C45.2414 57.6189 71.1758 22.037 101.485 19.6085Z" fill="#30475E"/>
<path d="M55.3003 36.5515L54.8775 27.3548C54.8775 15.6785 64.3429 6.21301 76.0192 6.21301H114.836C120.442 6.21421 125.819 8.44243 129.783 12.4076L138.535 21.1602C142.499 25.1254 147.876 27.3536 153.483 27.3548H195.576C201.516 27.3542 207.183 29.8526 211.189 34.2388C215.195 38.6249 217.171 44.494 216.633 50.4099L209.9 124.406C208.91 135.293 199.785 143.63 188.853 143.635H79.4653C68.5337 143.63 59.408 135.293 58.4187 124.406L51.685 50.4099C51.2346 45.5133 52.5137 40.6136 55.3003 36.562V36.5515ZM72.7423 37.9257C69.7731 37.9255 66.9408 39.174 64.938 41.3659C62.9351 43.5578 61.9464 46.4909 62.2136 49.4479L68.9473 123.444C69.4392 128.888 73.9997 133.059 79.4653 133.064H188.853C194.319 133.059 198.879 128.888 199.371 123.444L206.105 49.4479C206.372 46.4909 205.383 43.5578 203.38 41.3659C201.377 39.174 198.545 37.9255 195.576 37.9257H72.7423ZM122.32 19.8812C120.335 17.896 117.643 16.7817 114.836 16.7839H76.0192C70.2586 16.7829 65.5578 21.3944 65.4483 27.1539L65.5118 28.6233C67.7739 27.7988 70.2052 27.3548 72.7423 27.3548H129.783L122.309 19.8812H122.32Z" fill="#DDDDDD"/>
<path d="M98.0135 92.4564C93.9364 92.4564 90.6331 89.1522 90.6331 85.076V68.74C90.6331 64.6639 93.9364 61.3596 98.0135 61.3596C102.091 61.3596 105.394 64.6639 105.394 68.74V85.076C105.395 89.1522 102.091 92.4564 98.0135 92.4564Z" fill="#DDDDDD"/>
<path d="M170.289 92.3112C166.212 92.3112 162.909 89.007 162.909 84.9308V68.5948C162.909 64.5187 166.212 61.2144 170.289 61.2144C174.366 61.2144 177.669 64.5187 177.669 68.5948V84.9308C177.67 89.007 174.366 92.3112 170.289 92.3112Z" fill="#DDDDDD"/>
<path d="M136.298 115.497C130.048 117.422 123.38 116.621 118.004 113.297C115.906 112 115.258 109.25 116.554 107.153C117.85 105.055 120.601 104.406 122.698 105.702C125.883 107.671 129.882 108.131 133.669 106.964C137.457 105.798 140.504 103.168 142.029 99.7488C143.032 97.4967 145.673 96.4851 147.924 97.4907C150.176 98.4947 151.187 101.134 150.182 103.386C147.61 109.158 142.548 113.572 136.298 115.497Z" fill="#DDDDDD"/>
</svg>
